<svg width="159" height="134" viewBox="0 0 159 134" fill="none" xmlns="http://www.w3.org/2000/svg">
<path d="M135.348 50.2306C141.52 50.2892 147.429 52.8618 151.837 57.4086C156.245 61.9553 158.809 68.1227 158.99 74.6164C159.171 81.1101 156.955 87.4252 152.808 92.2363C148.661 97.0475 142.905 99.9806 136.748 100.42L135.102 100.462L134.291 100.521H125.025C126.537 103.643 127.395 107.176 127.395 110.919C127.395 123.728 118.226 134 106.121 134C94.1521 134 86.9149 126.616 84.9664 116.394C84.7076 114.784 85.0544 113.132 85.9331 111.787C86.8119 110.443 88.1536 109.511 89.6739 109.19C91.1941 108.869 92.7735 109.183 94.0771 110.067C95.3807 110.951 96.3062 112.334 96.6573 113.924C97.5639 118.654 100.292 121.442 106.121 121.442C111.466 121.442 115.466 116.963 115.466 110.927C115.466 105.159 110.949 100.462 105.342 100.462L6.02538 100.521C4.50337 100.537 3.03303 99.9402 1.91543 98.8524C0.79783 97.7647 0.117539 96.2683 0.0138627 94.6698C-0.0898136 93.0712 0.390968 91.4914 1.35776 90.2539C2.32455 89.0163 3.70419 88.2147 5.21418 88.013L6.02538 87.9628H104.539L105.342 87.9042C105.859 87.9042 106.36 87.921 106.861 87.9544L134.474 87.9712L134.903 87.921L136.494 87.8456C138.714 87.6158 140.829 86.7348 142.598 85.3028C144.367 83.8709 145.719 81.9453 146.501 79.7449C147.282 77.5446 147.461 75.1576 147.018 72.8553C146.575 70.553 145.528 68.4276 143.995 66.7206C142.462 65.0137 140.505 63.7936 138.346 63.199C136.187 62.6045 133.913 62.6592 131.782 63.3571C129.651 64.055 127.749 65.368 126.292 67.147C124.835 68.926 123.881 71.0996 123.538 73.4208L123.324 75.4217C123.056 77.0113 122.217 78.4313 120.981 79.3869C119.745 80.3425 118.207 80.7602 116.686 80.5534C115.165 80.3465 113.778 79.5309 112.814 78.276C111.849 77.0211 111.38 75.4233 111.505 73.8143C111.878 67.4258 114.553 61.428 118.984 57.0452C123.415 52.6623 129.268 50.2249 135.348 50.2306ZM79.6936 66.9744H6.17649C4.66524 66.9739 3.21051 66.3696 2.10623 65.2835C1.00196 64.1975 0.330479 62.7106 0.227472 61.1235C0.124466 59.5363 0.597612 57.9671 1.55131 56.7331C2.505 55.499 3.86814 54.692 5.36529 54.4752L6.17649 54.4166H79.6936C83.626 54.4166 87.47 53.189 90.7397 50.8892C94.0093 48.5895 96.5577 45.3207 98.0625 41.4962C99.5674 37.6718 99.9611 33.4635 99.194 29.4036C98.4268 25.3436 96.5332 21.6142 93.7526 18.6872C90.972 15.7601 87.4293 13.7667 83.5725 12.9591C79.7157 12.1515 75.718 12.566 72.0849 14.1502C68.4519 15.7343 65.3467 18.4169 63.162 21.8588C60.9773 25.3007 59.8112 29.3472 59.8112 33.4868C59.8112 35.152 59.1828 36.7491 58.0642 37.9266C56.9456 39.1042 55.4284 39.7657 53.8465 39.7657C52.2646 39.7657 50.7474 39.1042 49.6288 37.9266C48.5102 36.7491 47.8818 35.152 47.8818 33.4868C47.882 26.9424 49.7037 20.5415 53.122 15.0751C56.5402 9.60873 61.4051 5.31651 67.1154 2.72889C72.8256 0.141272 79.131 -0.628325 85.2523 0.515213C91.3735 1.65875 97.0423 4.6653 101.558 9.16329C106.074 13.6613 109.239 19.4536 110.661 25.8243C112.084 32.195 111.702 38.8649 109.563 45.0098C107.424 51.1546 103.622 56.5049 98.6254 60.3996C93.6293 64.2943 87.6586 66.5626 81.4512 66.9242L79.7016 66.9744H6.16854H79.6936Z" fill="white"/>
</svg>
