<svg width="163" height="125" viewBox="0 0 163 125" fill="none" xmlns="http://www.w3.org/2000/svg">
<path d="M89.2969 31.2198C115.009 31.2198 129.602 47.5613 131.72 67.2833H132.369C136.3 67.2782 140.193 68.0162 143.826 69.4552C147.459 70.8942 150.761 73.0059 153.544 75.6699C156.326 78.3339 158.535 81.4978 160.043 84.981C161.551 88.4642 162.33 92.1985 162.334 95.9705C162.33 99.7425 161.551 103.477 160.043 106.96C158.535 110.443 156.326 113.607 153.544 116.271C150.761 118.935 147.459 121.047 143.826 122.486C140.193 123.925 136.3 124.663 132.369 124.658H46.2163C42.286 124.663 38.393 123.925 34.7599 122.486C31.1267 121.047 27.8245 118.935 25.0419 116.271C22.2593 113.607 20.0508 110.443 18.5425 106.96C17.0343 103.477 16.2558 99.7425 16.2515 95.9705C16.2558 92.1985 17.0343 88.4642 18.5425 84.981C20.0508 81.4978 22.2593 78.3339 25.0419 75.6699C27.8245 73.0059 31.1267 70.8942 34.7599 69.4552C38.393 68.0162 42.286 67.2782 46.2163 67.2833H46.8656C49.0002 47.4289 63.5849 31.2198 89.2969 31.2198ZM37.248 0.00893566C43.7154 0.341335 50.0092 2.13762 55.6149 5.25099C63.8448 9.79628 70.178 16.9395 73.5353 25.4637C57.4329 29.8489 45.9079 41.0574 41.1194 56.2072L40.5594 58.1233L40.0887 59.9771L38.4167 60.2731C29.2754 62.1298 21.1709 67.1616 15.659 74.4025C9.82496 71.4364 4.82203 67.1641 1.0743 61.9478C0.544832 61.2101 0.199194 60.3655 0.0641025 59.4793C-0.0709887 58.593 0.00808639 57.6888 0.295212 56.8365C0.582338 55.9843 1.06983 55.2068 1.71999 54.5642C2.37016 53.9215 3.1656 53.431 4.04481 53.1305C17.3797 48.5505 24.5543 43.3941 28.6692 35.8777C33.1493 27.6602 33.9772 18.9442 30.9986 7.22942C30.7727 6.34303 30.7664 5.41818 30.98 4.52901C31.1937 3.63984 31.6215 2.81107 32.229 2.10913C32.8365 1.40719 33.607 0.851601 34.4786 0.486888C35.3501 0.122175 36.2986 -0.0415137 37.248 0.00893566Z" fill="white"/>
</svg>
