<svg width="139" height="90" viewBox="0 0 139 90" fill="none" xmlns="http://www.w3.org/2000/svg">
<path d="M69.01 0.00699997C93.309 0.00699997 107.088 15.613 109.089 34.464H109.703C113.416 34.458 117.094 35.162 120.527 36.536C123.96 37.91 127.08 39.926 129.71 42.472C132.339 45.016 134.426 48.038 135.852 51.366C137.279 54.693 138.015 58.261 138.02 61.865C138.016 65.469 137.28 69.038 135.855 72.366C134.43 75.695 132.342 78.718 129.712 81.263C127.083 83.809 123.962 85.826 120.529 87.2C117.095 88.575 113.417 89.28 109.703 89.274H28.317C24.603 89.28 20.924 88.575 17.491 87.2C14.058 85.826 10.937 83.809 8.308 81.263C5.678 78.718 3.59 75.695 2.165 72.366C0.74 69.038 0.003 65.469 0 61.865C0.005 58.262 0.741 54.695 2.167 51.368C3.592 48.041 5.678 45.018 8.308 42.474C10.936 39.929 14.056 37.912 17.488 36.538C20.919 35.164 24.596 34.459 28.309 34.464H28.923C30.947 15.479 44.718 0 69.01 0V0.00699997Z" fill="#F8F8F8"/>
</svg>
