<svg width="163" height="127" viewBox="0 0 163 127" fill="none" xmlns="http://www.w3.org/2000/svg">
<path d="M81.5 0C82.8509 0 84.1466 0.418134 85.1018 1.16242C86.0571 1.9067 86.5937 2.91617 86.5937 3.96875V11.8851C86.5937 12.9377 86.0571 13.9471 85.1018 14.6914C84.1466 15.4357 82.8509 15.8538 81.5 15.8538C80.1491 15.8538 78.8534 15.4357 77.8982 14.6914C76.9429 13.9471 76.4062 12.9377 76.4062 11.8851V3.96875C76.4062 2.91617 76.9429 1.9067 77.8982 1.16242C78.8534 0.418134 80.1491 0 81.5 0V0ZM122.25 63.5C122.25 67.6695 121.196 71.7981 119.148 75.6502C117.1 79.5023 114.099 83.0024 110.315 85.9506C106.531 88.8989 102.038 91.2376 97.0943 92.8332C92.1503 94.4288 86.8514 95.25 81.5 95.25C76.1486 95.25 70.8497 94.4288 65.9056 92.8332C60.9616 91.2376 56.4694 88.8989 52.6854 85.9506C48.9014 83.0024 45.8998 79.5023 43.8519 75.6502C41.804 71.7981 40.75 67.6695 40.75 63.5C40.75 55.0794 45.0433 47.0036 52.6854 41.0494C60.3275 35.0951 70.6924 31.75 81.5 31.75C92.3076 31.75 102.672 35.0951 110.315 41.0494C117.957 47.0036 122.25 55.0794 122.25 63.5V63.5ZM157.906 67.4687C159.257 67.4687 160.553 67.0506 161.508 66.3063C162.463 65.562 163 64.5526 163 63.5C163 62.4474 162.463 61.438 161.508 60.6937C160.553 59.9494 159.257 59.5312 157.906 59.5312H147.739C146.388 59.5312 145.093 59.9494 144.137 60.6937C143.182 61.438 142.645 62.4474 142.645 63.5C142.645 64.5526 143.182 65.562 144.137 66.3063C145.093 67.0506 146.388 67.4687 147.739 67.4687H157.899H157.906ZM81.5 111.146C82.8509 111.146 84.1466 111.564 85.1018 112.309C86.0571 113.053 86.5937 114.062 86.5937 115.115V123.031C86.5937 124.084 86.0571 125.093 85.1018 125.838C84.1466 126.582 82.8509 127 81.5 127C80.1491 127 78.8534 126.582 77.8982 125.838C76.9429 125.093 76.4062 124.084 76.4062 123.031V115.115C76.4062 114.062 76.9429 113.053 77.8982 112.309C78.8534 111.564 80.1491 111.146 81.5 111.146V111.146ZM15.2812 67.4687C16.6322 67.4687 17.9278 67.0506 18.8831 66.3063C19.8383 65.562 20.375 64.5526 20.375 63.5C20.375 62.4474 19.8383 61.438 18.8831 60.6937C17.9278 59.9494 16.6322 59.5312 15.2812 59.5312H5.09375C3.7428 59.5312 2.44719 59.9494 1.49192 60.6937C0.536661 61.438 0 62.4474 0 63.5C0 64.5526 0.536661 65.562 1.49192 66.3063C2.44719 67.0506 3.7428 67.4687 5.09375 67.4687H15.2812ZM21.8624 17.0339C22.8175 16.2907 24.1121 15.8732 25.462 15.8732C26.8118 15.8732 28.1065 16.2907 29.0615 17.0339L39.249 24.9714C40.1488 25.7237 40.6386 26.7188 40.6154 27.747C40.5921 28.7751 40.0575 29.7561 39.1242 30.4833C38.191 31.2104 36.9319 31.627 35.6123 31.6451C34.2926 31.6632 33.0155 31.2816 32.0499 30.5805L21.8624 22.643C20.9085 21.8989 20.3727 20.8902 20.3727 19.8385C20.3727 18.7867 20.9085 17.778 21.8624 17.0339V17.0339ZM29.0615 109.956C28.0959 110.657 26.8188 111.038 25.4992 111.02C24.1795 111.002 22.9205 110.585 21.9872 109.858C21.0539 109.131 20.5193 108.15 20.4961 107.122C20.4728 106.094 20.9626 105.099 21.8624 104.346L32.0499 96.4089C33.0155 95.7078 34.2926 95.3262 35.6123 95.3443C36.9319 95.3625 38.191 95.779 39.1242 96.5061C40.0575 97.2333 40.5921 98.2143 40.6154 99.2424C40.6386 100.271 40.1488 101.266 39.249 102.018L29.0615 109.956ZM141.124 17.0339C140.169 16.2907 138.874 15.8732 137.524 15.8732C136.175 15.8732 134.88 16.2907 133.925 17.0339L123.737 24.9714C122.838 25.7237 122.348 26.7188 122.371 27.747C122.394 28.7751 122.929 29.7561 123.862 30.4833C124.795 31.2104 126.055 31.627 127.374 31.6451C128.694 31.6632 129.971 31.2816 130.937 30.5805L141.124 22.643C142.078 21.8989 142.614 20.8902 142.614 19.8385C142.614 18.7867 142.078 17.778 141.124 17.0339V17.0339ZM133.932 109.961C134.398 110.351 134.96 110.664 135.585 110.88C136.21 111.097 136.885 111.214 137.568 111.223C138.252 111.233 138.932 111.135 139.566 110.935C140.2 110.736 140.776 110.438 141.26 110.062C141.744 109.685 142.125 109.236 142.381 108.742C142.638 108.247 142.763 107.718 142.751 107.185C142.739 106.652 142.589 106.127 142.311 105.64C142.033 105.153 141.631 104.715 141.131 104.352L130.943 96.4142C130.477 96.0242 129.915 95.7115 129.29 95.4946C128.665 95.2777 127.99 95.161 127.307 95.1516C126.623 95.1422 125.943 95.2402 125.309 95.4398C124.675 95.6395 124.099 95.9366 123.615 96.3134C123.131 96.6903 122.75 97.1392 122.494 97.6334C122.237 98.1276 122.112 98.6569 122.124 99.1898C122.136 99.7226 122.285 100.248 122.564 100.735C122.842 101.222 123.244 101.66 123.744 102.023L133.932 109.961Z" fill="#F5F5F5"/>
</svg>
