<svg width="109" height="128" viewBox="0 0 109 128" fill="none" xmlns="http://www.w3.org/2000/svg">
<path d="M101.035 95.7086C84.6474 126.253 48.3536 136.718 19.9688 119.083C12.3367 114.353 5.78304 107.849 0.786532 100.044C0.399351 99.4397 0.146417 98.7477 0.0472698 98.0216C-0.0518778 97.2954 0.00541419 96.5545 0.214719 95.856C0.424024 95.1574 0.77974 94.52 1.25439 93.993C1.72904 93.4659 2.30993 93.0633 2.95218 92.8163C25.3028 84.2096 37.2762 74.2365 44.224 59.9602C51.5338 44.9367 53.4265 28.4831 48.312 5.92567C48.1471 5.19963 48.1424 4.44213 48.2983 3.71379C48.4542 2.98544 48.7664 2.30648 49.2098 1.73123C49.6533 1.15598 50.2157 0.700426 50.8521 0.401016C51.4885 0.101607 52.1812 -0.0333411 52.8747 0.00697065C62.1873 0.546385 71.2491 3.4497 79.3193 8.47959C107.704 26.1144 117.429 65.1701 101.035 95.7086Z" fill="white"/>
</svg>
