<svg width="224" height="189" viewBox="0 0 224 189" fill="none" xmlns="http://www.w3.org/2000/svg">
<path d="M76.4286 6C77.6292 6 78.7806 6.42613 79.6295 7.18465C80.4784 7.94317 80.9554 8.97194 80.9554 10.0446V18.1124C80.9554 19.1851 80.4784 20.2138 79.6295 20.9724C78.7806 21.7309 77.6292 22.157 76.4286 22.157C75.228 22.157 74.0766 21.7309 73.2277 20.9724C72.3787 20.2138 71.9018 19.1851 71.9018 18.1124V10.0446C71.9018 8.97194 72.3787 7.94317 73.2277 7.18465C74.0766 6.42613 75.228 6 76.4286 6ZM112.643 70.7143C112.643 74.9635 111.706 79.1711 109.886 83.0968C108.066 87.0226 105.399 90.5896 102.036 93.5942C98.6731 96.5989 94.6809 98.9823 90.2872 100.608C85.8935 102.234 81.1843 103.071 76.4286 103.071C71.6728 103.071 66.9637 102.234 62.57 100.608C58.1762 98.9823 54.184 96.5989 50.8212 93.5942C47.4584 90.5896 44.7909 87.0226 42.9709 83.0968C41.151 79.1711 40.2143 74.9635 40.2143 70.7143C40.2143 62.1326 44.0297 53.9025 50.8212 47.8343C57.6127 41.7662 66.8239 38.3571 76.4286 38.3571C86.0332 38.3571 95.2445 41.7662 102.036 47.8343C108.827 53.9025 112.643 62.1326 112.643 70.7143ZM144.33 74.7589C145.531 74.7589 146.682 74.3328 147.531 73.5743C148.38 72.8158 148.857 71.787 148.857 70.7143C148.857 69.6416 148.38 68.6128 147.531 67.8543C146.682 67.0958 145.531 66.6696 144.33 66.6696H135.295C134.094 66.6696 132.943 67.0958 132.094 67.8543C131.245 68.6128 130.768 69.6416 130.768 70.7143C130.768 71.787 131.245 72.8158 132.094 73.5743C132.943 74.3328 134.094 74.7589 135.295 74.7589H144.324H144.33ZM76.4286 119.272C77.6292 119.272 78.7806 119.698 79.6295 120.456C80.4784 121.215 80.9554 122.244 80.9554 123.316V131.384C80.9554 132.457 80.4784 133.485 79.6295 134.244C78.7806 135.002 77.6292 135.429 76.4286 135.429C75.228 135.429 74.0766 135.002 73.2277 134.244C72.3787 133.485 71.9018 132.457 71.9018 131.384V123.316C71.9018 122.244 72.3787 121.215 73.2277 120.456C74.0766 119.698 75.228 119.272 76.4286 119.272ZM17.5804 74.7589C18.7809 74.7589 19.9323 74.3328 20.7813 73.5743C21.6302 72.8158 22.1071 71.787 22.1071 70.7143C22.1071 69.6416 21.6302 68.6128 20.7813 67.8543C19.9323 67.0958 18.7809 66.6696 17.5804 66.6696H8.52679C7.32621 66.6696 6.1748 67.0958 5.32586 67.8543C4.47693 68.6128 4 69.6416 4 70.7143C4 71.787 4.47693 72.8158 5.32586 73.5743C6.1748 74.3328 7.32621 74.7589 8.52679 74.7589H17.5804ZM23.429 23.3596C24.2777 22.6022 25.4283 22.1767 26.6279 22.1767C27.8275 22.1767 28.978 22.6022 29.8268 23.3596L38.8804 31.4489C39.68 32.2156 40.1153 33.2297 40.0946 34.2776C40.0739 35.3254 39.5989 36.3252 38.7695 37.0662C37.9401 37.8073 36.8212 38.2317 35.6484 38.2502C34.4757 38.2687 33.3407 37.8798 32.4825 37.1653L23.429 29.076C22.5812 28.3177 22.1051 27.2897 22.1051 26.2178C22.1051 25.146 22.5812 24.118 23.429 23.3596ZM29.8268 118.058C28.9687 118.773 27.8337 119.162 26.661 119.143C25.4882 119.125 24.3693 118.7 23.5399 117.959C22.7105 117.218 22.2354 116.218 22.2147 115.17C22.194 114.123 22.6294 113.108 23.429 112.342L32.4825 104.252C33.3407 103.538 34.4757 103.149 35.6484 103.168C36.8212 103.186 37.9401 103.611 38.7695 104.352C39.5989 105.093 40.0739 106.092 40.0946 107.14C40.1153 108.188 39.68 109.202 38.8804 109.969L29.8268 118.058ZM129.416 23.3596C128.567 22.6022 127.417 22.1767 126.217 22.1767C125.018 22.1767 123.867 22.6022 123.018 23.3596L113.965 31.4489C113.165 32.2156 112.73 33.2297 112.75 34.2776C112.771 35.3254 113.246 36.3252 114.076 37.0662C114.905 37.8073 116.024 38.2317 117.197 38.2502C118.369 38.2687 119.504 37.8798 120.363 37.1653L129.416 29.076C130.264 28.3177 130.74 27.2897 130.74 26.2178C130.74 25.146 130.264 24.118 129.416 23.3596ZM123.024 118.064C123.439 118.461 123.938 118.78 124.494 119.001C125.049 119.222 125.648 119.341 126.256 119.35C126.864 119.36 127.468 119.26 128.032 119.057C128.595 118.853 129.107 118.55 129.537 118.166C129.967 117.782 130.306 117.325 130.533 116.821C130.761 116.317 130.873 115.778 130.862 115.235C130.851 114.692 130.718 114.156 130.471 113.66C130.224 113.164 129.867 112.717 129.422 112.347L120.369 104.258C119.954 103.86 119.454 103.542 118.899 103.321C118.344 103.1 117.744 102.981 117.137 102.971C116.529 102.962 115.925 103.061 115.361 103.265C114.798 103.468 114.286 103.771 113.856 104.155C113.426 104.539 113.087 104.997 112.859 105.5C112.632 106.004 112.52 106.543 112.531 107.087C112.541 107.63 112.674 108.165 112.922 108.661C113.169 109.157 113.526 109.604 113.971 109.974L123.024 118.064Z" fill="#FFD909"/>
<path d="M122.5 56.5C149.304 56.5 164.504 70.3992 166.712 87.1737H167.388C171.486 87.1685 175.545 87.7958 179.332 89.0198C183.12 90.2437 186.563 92.0404 189.464 94.307C192.365 96.5736 194.667 99.2657 196.239 102.23C197.811 105.193 198.622 108.371 198.625 111.58C198.621 114.789 197.809 117.966 196.237 120.929C194.664 123.892 192.362 126.583 189.461 128.849C186.56 131.115 183.118 132.911 179.33 134.135C175.543 135.358 171.485 135.985 167.388 135.98H162.466L149.076 153.444C148.272 154.533 146.97 155.343 145.433 155.709C143.895 156.076 142.238 155.972 140.795 155.419C139.352 154.866 138.231 153.904 137.658 152.728C137.085 151.552 137.103 150.25 137.708 149.084L138.089 148.475L147.816 135.973H129.749L116.359 153.444C115.555 154.533 114.253 155.343 112.716 155.709C111.179 156.076 109.521 155.972 108.078 155.419C106.635 154.866 105.514 153.904 104.941 152.728C104.368 151.552 104.386 150.25 104.991 149.084L105.372 148.475L115.099 135.973H97.0235L83.6424 153.444C82.8381 154.533 81.5359 155.343 79.9989 155.709C78.4618 156.076 76.8044 155.972 75.3613 155.419C73.9183 154.866 72.797 153.904 72.2241 152.728C71.6511 151.552 71.6691 150.25 72.2744 149.084L72.655 148.475L82.3737 135.973H77.6116C73.5155 135.979 69.4582 135.352 65.6715 134.129C61.8847 132.906 58.4427 131.11 55.542 128.845C52.6413 126.58 50.3388 123.889 48.7659 120.927C47.193 117.965 46.3805 114.789 46.375 111.58C46.3806 108.373 47.1927 105.197 48.7651 102.235C50.3374 99.2733 52.6392 96.583 55.539 94.3179C58.4388 92.0528 61.8799 90.2572 65.6656 89.0337C69.4514 87.8101 73.5078 87.1826 77.6032 87.187H78.2798C80.5128 70.28 95.704 56.5 122.5 56.5Z" fill="#F5F5F5"/>
</svg>
