<svg width="101" height="89" viewBox="0 0 101 89" fill="none" xmlns="http://www.w3.org/2000/svg">
<path d="M53.9824 88.5C53.9824 83.349 54.2859 50.6455 55.023 42.9363C55.8469 34.5703 59.7926 22.6781 62.1773 13.6553C64.5621 4.63242 58.5352 0 58.5352 0C58.5352 0 64.3453 4.63242 55.8902 24.8906C47.782 44.2154 49.8199 85.043 50.0367 88.5H54.0258H53.9824ZM64.7789 52.5469C57.4945 65.8564 56.5406 82.4156 56.4539 88.5H63.7383C63.1312 81.6896 62.2207 62.0537 69.6352 51.2678C78.7406 38.0619 86.6754 40.2744 86.6754 40.2744C86.6754 40.2744 73.7976 35.8494 64.7355 52.5469H64.7789Z" fill="#F5F5F5"/>
<path d="M52.6816 88.5H58.2316C58.882 81.2056 61.3535 58.1127 66.7734 45.9785C73.2773 31.459 68.6379 16.2826 68.6379 16.2826C68.6379 16.2826 71.066 31.1824 62.4375 47.0502C55.0664 60.5326 53.1152 82.3119 52.6816 88.5ZM44.3566 88.5H51.5109C50.6437 84.4898 44.6168 56.799 38.2863 46.6699C31.4355 35.8148 26.3625 30.733 13.875 26.8611C13.875 26.8611 29.1375 32.0812 36.2918 55.5545C39.77 66.404 42.4627 77.404 44.3566 88.5Z" fill="#F5F5F5"/>
<path d="M44.4867 88.5C42.7523 81.9316 35.9449 60.2215 18.9047 54.1371C18.9047 54.1371 28.4004 62.2265 32.9965 71.1457C35.6559 76.7396 37.4752 82.5649 38.4164 88.5H44.4867Z" fill="#F5F5F5"/>
<g clip-path="url(#clip0_85_65)">
<path d="M50.2969 9.67969C53.1705 9.67969 55.5 7.82237 55.5 5.53125C55.5 3.24013 53.1705 1.38281 50.2969 1.38281C47.4233 1.38281 45.0938 3.24013 45.0938 5.53125C45.0938 7.82237 47.4233 9.67969 50.2969 9.67969Z" fill="#F5F5F5"/>
<path d="M67.6406 24.8906C71.4721 24.8906 74.5781 22.4142 74.5781 19.3594C74.5781 16.3045 71.4721 13.8281 67.6406 13.8281C63.8091 13.8281 60.7031 16.3045 60.7031 19.3594C60.7031 22.4142 63.8091 24.8906 67.6406 24.8906Z" fill="#F5F5F5"/>
<path d="M32.9531 24.8906C36.7846 24.8906 39.8906 22.4142 39.8906 19.3594C39.8906 16.3045 36.7846 13.8281 32.9531 13.8281C29.1216 13.8281 26.0156 16.3045 26.0156 19.3594C26.0156 22.4142 29.1216 24.8906 32.9531 24.8906Z" fill="#F5F5F5"/>
<path d="M5.20312 26.2734C8.07673 26.2734 10.4062 24.4161 10.4062 22.125C10.4062 19.8339 8.07673 17.9766 5.20312 17.9766C2.32952 17.9766 0 19.8339 0 22.125C0 24.4161 2.32952 26.2734 5.20312 26.2734Z" fill="#F5F5F5"/>
<path d="M95.3906 26.2734C98.2642 26.2734 100.594 24.4161 100.594 22.125C100.594 19.8339 98.2642 17.9766 95.3906 17.9766C92.517 17.9766 90.1875 19.8339 90.1875 22.125C90.1875 24.4161 92.517 26.2734 95.3906 26.2734Z" fill="#F5F5F5"/>
<path d="M78.0469 11.0625C79.9626 11.0625 81.5156 9.82429 81.5156 8.29688C81.5156 6.76946 79.9626 5.53125 78.0469 5.53125C76.1311 5.53125 74.5781 6.76946 74.5781 8.29688C74.5781 9.82429 76.1311 11.0625 78.0469 11.0625Z" fill="#F5F5F5"/>
<path d="M22.5469 11.0625C24.4626 11.0625 26.0156 9.82429 26.0156 8.29688C26.0156 6.76946 24.4626 5.53125 22.5469 5.53125C20.6311 5.53125 19.0781 6.76946 19.0781 8.29688C19.0781 9.82429 20.6311 11.0625 22.5469 11.0625Z" fill="#F5F5F5"/>
</g>
<defs>
<clipPath id="clip0_85_65">
<rect width="100.594" height="24.8906" fill="white" transform="translate(0 1.38281)"/>
</clipPath>
</defs>
</svg>
