<svg width="50" height="59" viewBox="0 0 50 59" fill="none" xmlns="http://www.w3.org/2000/svg">
<path d="M25 4.91669C26.7291 4.91652 28.3928 5.69696 29.6498 7.09799C30.9068 8.49901 31.662 10.4144 31.7604 12.4515L31.7708 12.9063L31.7729 32.4549L31.9396 32.6246C33.881 34.667 35.1031 37.4941 35.3646 40.5478L35.4042 41.1673L35.4167 41.7917C35.417 43.8169 34.9932 45.8108 34.183 47.5962C33.3728 49.3815 32.2014 50.903 30.7727 52.0254C29.3441 53.1477 27.7026 53.8361 25.9942 54.0294C24.2857 54.2227 22.5633 53.9149 20.98 53.1333C19.3966 52.3517 18.0015 51.1206 16.9186 49.5494C15.8357 47.9782 15.0986 46.1157 14.7728 44.1273C14.4469 42.1389 14.5425 40.0863 15.051 38.152C15.5595 36.2178 16.4652 34.4617 17.6875 33.04L18.0625 32.6221L18.2271 32.4549L18.2292 12.9063C18.2288 10.9428 18.8412 9.04795 19.9494 7.58335C21.0577 6.11875 22.5841 5.18697 24.2375 4.96585L24.6167 4.92898L25 4.91669ZM25 8.60419C24.0847 8.60428 23.2029 9.01063 22.5298 9.74251C21.8566 10.4744 21.4415 11.4783 21.3667 12.5547L21.3542 12.9063V34.279L20.7104 34.8321C19.4805 35.8878 18.5611 37.3709 18.0809 39.0738C17.6007 40.7766 17.5838 42.6141 18.0326 44.3288C18.4813 46.0436 19.3732 47.5499 20.5834 48.6368C21.7936 49.7238 23.2616 50.337 24.7818 50.3906C26.302 50.4442 27.7984 49.9355 29.0615 48.9358C30.3245 47.9361 31.2911 46.4953 31.8258 44.8153C32.3605 43.1352 32.4366 41.2998 32.0435 39.5662C31.6503 37.8325 30.8076 36.2873 29.6333 35.1468L29.2896 34.8346L28.65 34.2815L28.6458 12.9063C28.6458 11.7653 28.2617 10.671 27.578 9.86424C26.8943 9.05744 25.9669 8.60419 25 8.60419ZM25 19.6667C25.4144 19.6667 25.8118 19.8609 26.1048 20.2067C26.3979 20.5525 26.5625 21.0214 26.5625 21.5104V35.9286C27.7501 36.3691 28.7648 37.2968 29.4229 38.5438C30.081 39.7908 30.339 41.2746 30.1501 42.7266C29.9613 44.1786 29.3381 45.5028 28.3934 46.4595C27.4487 47.4162 26.2449 47.9422 25 47.9422C23.7551 47.9422 22.5513 47.4162 21.6066 46.4595C20.6619 45.5028 20.0387 44.1786 19.8499 42.7266C19.661 41.2746 19.919 39.7908 20.5771 38.5438C21.2352 37.2968 22.2499 36.3691 23.4375 35.9286V21.5104C23.4375 21.0214 23.6021 20.5525 23.8951 20.2067C24.1882 19.8609 24.5856 19.6667 25 19.6667Z" fill="white"/>
</svg>
