<svg width="163" height="137" viewBox="0 0 163 137" fill="none" xmlns="http://www.w3.org/2000/svg">
<path d="M71.024 125.822C72.6384 125.822 74.1868 126.375 75.3284 127.359C76.47 128.342 77.1113 129.676 77.1113 131.068C77.1113 132.459 76.47 133.793 75.3284 134.776C74.1868 135.76 72.6384 136.313 71.024 136.313C69.4095 136.313 67.8611 135.76 66.7195 134.776C65.5779 133.793 64.9366 132.459 64.9366 131.068C64.9366 129.676 65.5779 128.342 66.7195 127.359C67.8611 126.375 69.4095 125.822 71.024 125.822ZM107.548 125.822C109.163 125.822 110.711 126.375 111.853 127.359C112.994 128.342 113.636 129.676 113.636 131.068C113.636 132.459 112.994 133.793 111.853 134.776C110.711 135.76 109.163 136.313 107.548 136.313C105.934 136.313 104.385 135.76 103.244 134.776C102.102 133.793 101.461 132.459 101.461 131.068C101.461 129.676 102.102 128.342 103.244 127.359C104.385 126.375 105.934 125.822 107.548 125.822ZM52.7618 118.829C54.3763 118.829 55.9246 119.381 57.0662 120.365C58.2079 121.349 58.8492 122.683 58.8492 124.074C58.8492 125.465 58.2079 126.799 57.0662 127.783C55.9246 128.767 54.3763 129.319 52.7618 129.319C51.1474 129.319 49.599 128.767 48.4574 127.783C47.3158 126.799 46.6745 125.465 46.6745 124.074C46.6745 122.683 47.3158 121.349 48.4574 120.365C49.599 119.381 51.1474 118.829 52.7618 118.829ZM89.2861 118.829C90.9006 118.829 92.4489 119.381 93.5905 120.365C94.7321 121.349 95.3735 122.683 95.3735 124.074C95.3735 125.465 94.7321 126.799 93.5905 127.783C92.4489 128.767 90.9006 129.319 89.2861 129.319C87.6716 129.319 86.1233 128.767 84.9817 127.783C83.8401 126.799 83.1987 125.465 83.1987 124.074C83.1987 122.683 83.8401 121.349 84.9817 120.365C86.1233 119.381 87.6716 118.829 89.2861 118.829ZM125.81 118.829C127.425 118.829 128.973 119.381 130.115 120.365C131.256 121.349 131.898 122.683 131.898 124.074C131.898 125.465 131.256 126.799 130.115 127.783C128.973 128.767 127.425 129.319 125.81 129.319C124.196 129.319 122.648 128.767 121.506 127.783C120.364 126.799 119.723 125.465 119.723 124.074C119.723 122.683 120.364 121.349 121.506 120.365C122.648 119.381 124.196 118.829 125.81 118.829ZM89.2942 28.0383C115.015 28.0383 129.601 42.7038 131.727 60.4186H132.377C140.312 60.4111 147.926 63.1197 153.544 67.9486C159.162 72.7775 162.324 79.3314 162.335 86.1689C162.33 89.5556 161.552 92.9085 160.043 96.036C158.535 99.1634 156.327 102.004 153.544 104.396C150.761 106.788 147.459 108.684 143.825 109.976C140.192 111.268 136.299 111.931 132.368 111.926H46.2199C42.2894 111.931 38.3963 111.268 34.763 109.976C31.1297 108.684 27.8273 106.788 25.0446 104.396C22.2619 102.004 20.0533 99.1634 18.5449 96.036C17.0366 92.9085 16.2581 89.5556 16.2538 86.1689C16.2591 82.7827 17.0385 79.4306 18.5473 76.3039C20.0561 73.1773 22.2649 70.3373 25.0475 67.9462C27.8301 65.555 31.1321 63.6595 34.7648 62.368C38.3976 61.0764 42.29 60.414 46.2199 60.4186H46.8693C49.0039 42.585 63.5811 28.0383 89.2942 28.0383ZM37.2431 0.00811952C43.7115 0.308708 50.0055 1.92394 55.6107 4.72178C63.8445 8.80116 70.1811 15.2152 73.5401 22.8701C57.4288 26.7935 45.9034 36.8642 41.1228 50.4667L40.5546 52.1871L40.092 53.8516L38.42 54.1173C29.277 55.7862 21.172 60.3067 15.6613 66.8107L14.4032 66.2162C9.1013 63.5858 4.54805 59.9683 1.07595 55.628C0.546297 54.9661 0.200294 54.2082 0.0646638 53.4129C-0.0709664 52.6175 0.00740494 51.8059 0.293727 51.0407C0.580048 50.2756 1.06666 49.5774 1.71596 49.0001C2.36527 48.4228 3.1599 47.9818 4.03847 47.7112C17.3739 43.599 24.557 38.9693 28.6639 32.2135C33.1524 24.8353 33.9802 17.0095 31.0015 6.49815C30.7741 5.70181 30.7667 4.87064 30.9796 4.07136C31.1926 3.27208 31.6202 2.52697 32.2279 1.89586C32.8357 1.26475 33.6067 0.765214 34.4791 0.437371C35.3515 0.109527 36.3009 -0.0374914 37.2512 0.00811952H37.2431Z" fill="white"/>
</svg>
