<svg width="159" height="134" viewBox="0 0 159 134" fill="none" xmlns="http://www.w3.org/2000/svg">
<path d="M59.625 120.856C61.3821 120.856 63.0672 121.531 64.3096 122.732C65.552 123.933 66.25 125.562 66.25 127.261C66.25 128.96 65.552 130.589 64.3096 131.791C63.0672 132.992 61.3821 133.667 59.625 133.667C57.8679 133.667 56.1828 132.992 54.9404 131.791C53.698 130.589 53 128.96 53 127.261C53 125.562 53.698 123.933 54.9404 122.732C56.1828 121.531 57.8679 120.856 59.625 120.856ZM99.375 120.856C101.132 120.856 102.817 121.531 104.06 122.732C105.302 123.933 106 125.562 106 127.261C106 128.96 105.302 130.589 104.06 131.791C102.817 132.992 101.132 133.667 99.375 133.667C97.6179 133.667 95.9328 132.992 94.6904 131.791C93.448 130.589 92.75 128.96 92.75 127.261C92.75 125.562 93.448 123.933 94.6904 122.732C95.9328 121.531 97.6179 120.856 99.375 120.856ZM39.75 112.315C41.5071 112.315 43.1922 112.99 44.4346 114.192C45.677 115.393 46.375 117.022 46.375 118.721C46.375 120.42 45.677 122.049 44.4346 123.25C43.1922 124.451 41.5071 125.126 39.75 125.126C37.9929 125.126 36.3078 124.451 35.0654 123.25C33.823 122.049 33.125 120.42 33.125 118.721C33.125 117.022 33.823 115.393 35.0654 114.192C36.3078 112.99 37.9929 112.315 39.75 112.315ZM79.5 112.315C81.2571 112.315 82.9421 112.99 84.1846 114.192C85.427 115.393 86.125 117.022 86.125 118.721C86.125 120.42 85.427 122.049 84.1846 123.25C82.9421 124.451 81.2571 125.126 79.5 125.126C77.7429 125.126 76.0578 124.451 74.8154 123.25C73.573 122.049 72.875 120.42 72.875 118.721C72.875 117.022 73.573 115.393 74.8154 114.192C76.0578 112.99 77.7429 112.315 79.5 112.315ZM119.25 112.315C121.007 112.315 122.692 112.99 123.935 114.192C125.177 115.393 125.875 117.022 125.875 118.721C125.875 120.42 125.177 122.049 123.935 123.25C122.692 124.451 121.007 125.126 119.25 125.126C117.493 125.126 115.808 124.451 114.565 123.25C113.323 122.049 112.625 120.42 112.625 118.721C112.625 117.022 113.323 115.393 114.565 114.192C115.808 112.99 117.493 112.315 119.25 112.315ZM79.5 0.00853983C107.493 0.00853983 123.366 17.9179 125.672 39.5508H126.378C130.656 39.5441 134.893 40.3522 138.848 41.929C142.803 43.5057 146.397 45.8203 149.427 48.7404C152.456 51.6606 154.861 55.1291 156.503 58.9479C158.146 62.7667 158.994 66.8609 159 70.9968C158.995 75.1334 158.148 79.2285 156.506 83.0483C154.864 86.8681 152.459 90.3376 149.43 93.2587C146.4 96.1797 142.805 98.495 138.85 100.072C134.895 101.65 130.657 102.458 126.378 102.451H32.6215C28.3431 102.458 24.1052 101.65 20.15 100.072C16.1947 98.495 12.5997 96.1797 9.57032 93.2587C6.5409 90.3376 4.13645 86.8681 2.49433 83.0483C0.852223 79.2285 0.00463599 75.1334 0 70.9968C0.00579612 66.8616 0.853946 62.7681 2.49602 58.9499C4.1381 55.1316 6.54195 51.6635 9.57031 48.7435C12.5987 45.8234 16.1923 43.5087 20.1459 41.9314C24.0995 40.3541 28.3357 39.5452 32.6127 39.5508H33.3193C35.6513 17.7641 51.516 0 79.5 0V0.00853983Z" fill="white"/>
</svg>
