<svg width="37" height="36" viewBox="0 0 37 36" fill="none" xmlns="http://www.w3.org/2000/svg">
<path d="M18.5 9C17.3566 9 16.2388 9.3299 15.2881 9.94798C14.3374 10.5661 13.5964 11.4446 13.1588 12.4724C12.7213 13.5002 12.6068 14.6312 12.8298 15.7224C13.0529 16.8135 13.6035 17.8158 14.412 18.6025C15.2206 19.3891 16.2507 19.9249 17.3721 20.1419C18.4936 20.359 19.656 20.2476 20.7124 19.8218C21.7688 19.3961 22.6717 18.6751 23.3069 17.7501C23.9422 16.8251 24.2812 15.7375 24.2812 14.625C24.2795 13.1337 23.6698 11.7039 22.586 10.6494C21.5022 9.59489 20.0327 9.00171 18.5 9ZM18.5 18C17.8139 18 17.1433 17.8021 16.5729 17.4312C16.0024 17.0604 15.5578 16.5333 15.2953 15.9166C15.0328 15.2999 14.9641 14.6213 15.0979 13.9666C15.2317 13.3119 15.5621 12.7105 16.0472 12.2385C16.5323 11.7665 17.1504 11.4451 17.8233 11.3148C18.4962 11.1846 19.1936 11.2515 19.8274 11.5069C20.4613 11.7624 21.003 12.1949 21.3842 12.75C21.7653 13.305 21.9688 13.9575 21.9688 14.625C21.9677 15.5198 21.6019 16.3777 20.9516 17.0104C20.3013 17.6431 19.4197 17.999 18.5 18ZM18.5 2.25C15.128 2.25372 11.8951 3.55871 9.51071 5.87866C7.12631 8.19862 5.78508 11.3441 5.78125 14.625C5.78125 19.0401 7.8784 23.7205 11.8462 28.1602C13.6317 30.1661 15.641 31.9727 17.8369 33.5467C18.0312 33.679 18.2628 33.75 18.5 33.75C18.7372 33.75 18.9688 33.679 19.1631 33.5467C21.359 31.9727 23.3683 30.1661 25.1538 28.1602C29.1215 23.7205 31.2188 19.0402 31.2188 14.625C31.2149 11.3441 29.8737 8.19862 27.4893 5.87866C25.1049 3.55871 21.872 2.25372 18.5 2.25ZM18.5 31.2159C16.1105 29.3923 8.09375 22.6731 8.09375 14.625C8.09375 11.9397 9.19012 9.36435 11.1417 7.46554C13.0932 5.56674 15.7401 4.5 18.5 4.5C21.2599 4.5 23.9068 5.56674 25.8583 7.46554C27.8099 9.36435 28.9062 11.9397 28.9062 14.625C28.9062 22.6733 20.8891 29.3927 18.5 31.2159Z" fill="white"/>
</svg>
