<svg width="113" height="153" viewBox="0 0 113 153" fill="none" xmlns="http://www.w3.org/2000/svg">
<path d="M50.2691 0.0880326C43.7116 0.593673 38.3021 1.55372 33.0654 3.14923C30.6438 3.87567 26.7125 5.45816 24.4166 6.61251C19.2586 9.23298 14.1793 13.1246 10.6412 17.2108C5.29467 23.3729 1.88211 30.9616 0.262442 40.3402C0.0737165 41.3912 -0.0363409 42.2993 0.0109387 42.3638C0.0580221 42.4287 0.749952 42.805 1.52055 43.2075L2.95149 43.9339L13.519 44.9715C19.3373 45.5423 24.2909 46.0225 24.5581 46.0481L25.0142 46.0742L25.4544 44.1285C28.0648 32.3884 33.6002 25.202 42.9883 21.3104C47.1869 19.5846 51.6844 18.7676 57.1411 18.7676C64.7678 18.7676 71.2781 20.5968 76.8447 24.3067C79.5336 26.1102 82.4586 28.8603 84.2199 31.273C87.9625 36.3713 88.9689 43.0386 86.8148 48.4741C86.2012 50.0309 84.6604 52.4564 83.4335 53.7925C80.8235 56.6592 76.8447 60.0063 70.5544 64.6244C61.1979 71.5123 56.9522 75.171 53.634 79.2178C47.2183 87.0271 44.6393 95.5889 45.0325 107.796L45.1268 111L55.9931 110.974L66.8591 110.935L66.8907 109.573C66.9851 105.655 67.4728 100.376 67.9756 97.963C68.8719 93.6041 70.9477 89.7123 74.1559 86.4175C75.6339 84.8869 81.2478 80.3594 86.2012 76.6883C100.574 66.0256 106.833 59.6689 110.23 52.2752C113.737 44.673 113.925 35.6053 110.733 27.6147C108.374 21.7383 103.924 16.186 97.901 11.6457C89.3465 5.18569 79.1877 1.59258 65.7582 0.28256C63.211 0.0229007 52.738 -0.0936853 50.2691 0.0880326Z" fill="#F5F5F5"/>
<path d="M39.3888 134.087C39.0185 135.152 39 135.402 39 144.087V153H69V144C68.9811 135.956 68.9443 134.913 68.6664 134.033L68.3517 133.054L54.0742 133.022L39.7963 133L39.3888 134.087Z" fill="#F5F5F5"/>
</svg>
