<svg width="159" height="134" viewBox="0 0 159 134" fill="none" xmlns="http://www.w3.org/2000/svg">
<g clip-path="url(#clip0_67_49)">
<path d="M64.5938 125.625H44.7188C42.0843 125.622 39.5587 124.739 37.6958 123.169C35.8329 121.599 34.7848 119.47 34.7812 117.25V83.75H44.7188V117.25H64.5938V83.75H74.5312V117.25C74.5277 119.47 73.4796 121.599 71.6167 123.169C69.7538 124.739 67.2282 125.622 64.5938 125.625Z" fill="white"/>
<path d="M124.219 83.75H115.523L104.344 121.567L93.3727 83.75H84.4688L96.8906 125.625H111.797L124.219 83.75Z" fill="white"/>
<path d="M84.4688 8.375H74.5312V29.3125H84.4688V8.375Z" fill="white"/>
<path d="M125.175 22.5855L107.755 37.2662L114.781 43.1877L132.201 28.507L125.175 22.5855Z" fill="white"/>
<path d="M149.062 62.8125H124.219V71.1875H149.062V62.8125Z" fill="white"/>
<path d="M34.7812 62.8125H9.9375V71.1875H34.7812V62.8125Z" fill="white"/>
<path d="M33.8255 22.5855L26.7993 28.507L44.2189 43.1876L51.2451 37.2662L33.8255 22.5855Z" fill="white"/>
<path d="M109.312 71.1875H99.375V67C99.375 62.5576 97.281 58.2972 93.5537 55.156C89.8265 52.0147 84.7712 50.25 79.5 50.25C74.2288 50.25 69.1735 52.0147 65.4463 55.156C61.719 58.2972 59.625 62.5576 59.625 67V71.1875H49.6875V67C49.6875 60.3364 52.8285 53.9458 58.4194 49.2339C64.0103 44.5221 71.5932 41.875 79.5 41.875C87.4068 41.875 94.9897 44.5221 100.581 49.2339C106.172 53.9458 109.312 60.3364 109.312 67V71.1875Z" fill="white"/>
</g>
<defs>
<clipPath id="clip0_67_49">
<rect width="159" height="134" fill="white"/>
</clipPath>
</defs>
</svg>
