<svg width="44" height="49" viewBox="0 0 44 49" fill="none" xmlns="http://www.w3.org/2000/svg">
<path d="M34.375 30.625C34.375 39.0823 29.5943 44.4062 22 44.4062C14.4057 44.4062 9.625 39.0823 9.625 30.625C9.625 21.5495 18.4963 9.29754 21.2171 5.75366C21.3139 5.62774 21.4341 5.52666 21.5693 5.45736C21.7045 5.38806 21.8516 5.35217 22.0004 5.35217C22.1493 5.35217 22.2964 5.38806 22.4316 5.45736C22.5668 5.52666 22.6869 5.62774 22.7837 5.75366C25.5037 9.29754 34.375 21.5495 34.375 30.625Z" stroke="white" stroke-width="1.5" stroke-miterlimit="10"/>
<path d="M29.5625 31.3906C29.5625 33.2181 28.9106 34.9708 27.7502 36.263C26.5898 37.5553 25.016 38.2812 23.375 38.2812" stroke="white" stroke-width="1.5" stroke-linecap="round" stroke-linejoin="round"/>
</svg>
