<svg width="40" height="45" viewBox="0 0 40 45" fill="none" xmlns="http://www.w3.org/2000/svg">
<path d="M35 18.2574C35.0041 18.5424 34.9311 18.8222 34.7907 19.0595C34.6503 19.2968 34.4491 19.4805 34.2137 19.5863L22.2125 24.9877L17.4112 38.4905C17.3185 38.7517 17.1583 38.9755 16.9513 39.1332C16.7443 39.2909 16.5 39.3751 16.25 39.375H16.23C15.9768 39.3705 15.7308 39.2797 15.5246 39.1144C15.3183 38.9492 15.1616 38.7174 15.075 38.4497L5.07499 7.51222C4.99313 7.26053 4.9769 6.98778 5.02822 6.72606C5.07954 6.46435 5.19626 6.22459 5.36465 6.03501C5.53303 5.84543 5.74606 5.71393 5.97865 5.65599C6.21124 5.59806 6.4537 5.6161 6.67749 5.708L34.1775 16.958C34.4155 17.0556 34.6216 17.2323 34.7685 17.4645C34.9154 17.6968 34.9961 17.9738 35 18.2588V18.2574Z" fill="white"/>
</svg>
